<svg xmlns="http://www.w3.org/2000/svg" viewBox="0 0 64 64" role="img" aria-label="ERC">
  <rect width="64" height="64" rx="16" fill="#1E2A36"/>
  <path d="M24.2 8.7c-7.4 1.2-13.4 8.1-14 16.4-.6 8.9 4.4 17.2 11 23.2 3.3 3 6.6 1 6.6-3.4V33.2c0-4.4 2.2-7.8 5.1-10.6 2-1.9 2.2-5.2.4-7.4-2.1-2.6-5.3-7.1-9.1-6.5Z" fill="#EAF1F8"/>
  <path d="M39.8 8.7c7.4 1.2 13.4 8.1 14 16.4.6 8.9-4.4 17.2-11 23.2-3.3 3-6.6 1-6.6-3.4V33.2c0-4.4-2.2-7.8-5.1-10.6-2-1.9-2.2-5.2-.4-7.4 2.1-2.6 5.3-7.1 9.1-6.5Z" fill="#9FC3DF"/>
  <path d="M30.3 24.2c-3.6 3.1-5.4 6.9-5.4 11.5m8.8-11.5c3.6 3.1 5.4 6.9 5.4 11.5M32 22.7v-7.4" stroke="#2F5D8C" stroke-width="3.2" stroke-linecap="round"/>
</svg>
